<?xml version="1.0" encoding="utf-8"?>
<!-- Generator: Adobe Illustrator 18.0.0, SVG Export Plug-In . SVG Version: 6.00 Build 0)  -->
<!DOCTYPE svg PUBLIC "-//W3C//DTD SVG 1.1//EN" "http://www.w3.org/Graphics/SVG/1.1/DTD/svg11.dtd">
<svg version="1.1" xmlns="http://www.w3.org/2000/svg" xmlns:xlink="http://www.w3.org/1999/xlink" x="0px" y="0px"
	 viewBox="0 0 802.63 35.768" enable-background="new 0 0 802.63 35.768" xml:space="preserve">
<g id="Backgroud" display="none">
	
		<rect x="-464.788" y="-152.463" display="inline" stroke="#F9B233" stroke-width="4" stroke-miterlimit="10" width="1728" height="896"/>
</g>
<g id="Header_-_PlannerAgent" display="none">
	
		<text transform="matrix(1 0 0 1 268.1266 -33.9243)" display="inline" fill="#F9B233" stroke="#FFFFFF" stroke-miterlimit="10" font-family="'Arial-BoldMT'" font-size="32">PLANNERAGENT</text>
</g>
<g id="Activity_Bar">
	<polyline fill="none" stroke="#F9B233" stroke-miterlimit="10" points="49.462,12.2 41.796,4.534 15.775,4.534 0.707,19.601 
		16.374,35.268 248.374,35.268 	"/>
	<polyline fill="none" stroke="#F9B233" stroke-miterlimit="10" points="753.167,8.167 760.834,0.5 786.855,0.5 801.923,15.568 
		786.256,31.234 554.255,31.234 	"/>
	<path fill="none" stroke="#F9B233" stroke-width="2" stroke-miterlimit="10" d="M55.796,15.867"/>
</g>
<g id="Data_Awareness" display="none">
	<g>
		
			<text transform="matrix(0.9361 0 0 1 -98.6251 140.142)" display="inline" fill="#FFFFFF" font-family="'ArialMT'" font-size="26">SNAPSHOT</text>
		<text transform="matrix(1 0 0 1 324.3277 140.142)" display="inline" fill="#FFFFFF" font-family="'ArialMT'" font-size="26">BEHAVIORAL</text>
		<text transform="matrix(0.913 0 0 1 761.4672 140.142)" display="inline" fill="#FFFFFF" font-family="'ArialMT'" font-size="26">STRUCTURAL</text>
	</g>
	<text transform="matrix(1 0 0 1 253.3495 94.9882)" fill="#F9B233" font-family="'Arial-BoldMT'" font-size="31">DATA AWARENESS</text>
	<path display="inline" fill="none" stroke="#F9B233" stroke-miterlimit="10" d="M1033.082,106.694h-1267.74c-6.6,0-12,5.4-12,12v26
		c0,6.6,5.4,12,12,12h1267.74c6.6,0,12-5.4,12-12v-26C1045.082,112.094,1039.682,106.694,1033.082,106.694z"/>
	<line display="inline" fill="none" stroke="#F9B233" stroke-miterlimit="10" x1="15.775" y1="66.969" x2="-23.764" y2="106.507"/>
	<line display="inline" fill="none" stroke="#F9B233" stroke-miterlimit="10" x1="784.706" y1="66.969" x2="825.319" y2="107.582"/>
</g>
<g id="Plan" display="none">
	<text transform="matrix(1 0 0 1 -73.3939 204.5481)" display="inline" fill="#F9B233" font-family="'ArialMT'" font-size="31">PLAN</text>
	<text transform="matrix(1 0 0 1 -2.255 259.3837)" display="inline" fill="#FFFFFF" font-family="'ArialMT'" font-size="26">VALID</text>
	<text transform="matrix(1 0 0 1 -64.7975 308.966)" display="inline" fill="#FFFFFF" font-family="'ArialMT'" font-size="26">MISSING</text>
	<text transform="matrix(1 0 0 1 -87.8041 356.5041)" display="inline" fill="#FFFFFF" font-family="'ArialMT'" font-size="26">BROKEN</text>
	<polygon display="inline" fill="none" stroke="#F9B233" stroke-miterlimit="10" points="248.374,167.504 -247.425,168.408 
		-272.895,193.878 -272.895,215.856 225.742,215.856 	"/>
	<polygon display="inline" fill="none" stroke="#F9B233" stroke-miterlimit="10" points="-272.895,215.856 -272.895,362.269 
		-156.021,401.9 49.473,401.9 72.55,374.379 151.671,374.379 225.742,215.856 	"/>
</g>
<g id="Decision_Pressure" display="none">
	<g display="inline">
		<polygon fill="none" stroke="#F9B233" stroke-miterlimit="10" points="198.715,403.867 295.418,185.504 507.506,185.504 
			604.21,403.867 		"/>
	</g>
	<text transform="matrix(1 0 0 1 348.7448 295.5374)" display="inline" fill="#FFFFFF" font-family="'ArialMT'" font-size="26">MEDIUM</text>
	<text transform="matrix(1 0 0 1 371.8504 362.4273)" display="inline" fill="#FFFFFF" font-family="'ArialMT'" font-size="26">LOW</text>
	<text transform="matrix(1 0 0 1 368.9622 228.5702)" display="inline" fill="#FFFFFF" font-family="'ArialMT'" font-size="26">HIGH</text>
	<text transform="matrix(1 0 0 1 236.9566 435.4605)" display="inline" fill="#F9B233" font-family="'ArialMT'" font-size="31">DECISION PRESSURE</text>
	<g display="inline">
		<g>
			<polyline fill="none" stroke="#F9B233" stroke-miterlimit="10" points="402.679,403.867 166.669,403.867 151.928,423.384 			"/>
			<polyline fill="none" stroke="#F9B233" stroke-miterlimit="10" points="402.679,442.9 166.669,442.9 151.928,423.384 			"/>
		</g>
		<g>
			<polyline fill="none" stroke="#F9B233" stroke-miterlimit="10" points="401.177,403.867 637.187,403.867 651.928,423.384 			"/>
			<polyline fill="none" stroke="#F9B233" stroke-miterlimit="10" points="401.177,442.9 637.187,442.9 651.928,423.384 			"/>
		</g>
	</g>
</g>
<g id="Reality" display="none">
	<g display="inline">
		<polygon fill="none" stroke="#F9B233" stroke-miterlimit="10" points="554.255,167.834 650.959,374.428 730.08,374.428 
			753.156,401.9 958.651,401.9 1075.525,362.34 1075.525,194.208 1050.055,168.738 		"/>
		<line fill="none" stroke="#F9B233" stroke-miterlimit="10" x1="1075.525" y1="216.186" x2="576.888" y2="216.186"/>
	</g>
	<text transform="matrix(1 0 0 1 785.1029 204.3892)" display="inline" fill="#F9B233" font-family="'ArialMT'" font-size="31">REALITY</text>
	<text transform="matrix(1 0 0 1 734.8516 259.2247)" display="inline" fill="#FFFFFF" font-family="'ArialMT'" font-size="26">STABLE</text>
	<text transform="matrix(1 0 0 1 759.042 308.8071)" display="inline" fill="#FFFFFF" font-family="'ArialMT'" font-size="26">SHIFTING</text>
	<text transform="matrix(1 0 0 1 781.0752 356.3452)" display="inline" fill="#FFFFFF" font-family="'ArialMT'" font-size="26">UNSTABLE</text>
</g>
<g id="Chat_Message" display="none">
	<g display="inline">
		<path fill="none" stroke="#F9B233" stroke-miterlimit="10" stroke-dasharray="11.9639,11.9639" d="M995.559,625.44H-197.134
			c-6.6,0-12-5.4-12-12V467.949c0-6.6,5.4-12,12-12H995.559c6.6,0,12,5.4,12,12V613.44
			C1007.559,620.04,1002.159,625.44,995.559,625.44z"/>
	</g>
	<text transform="matrix(1 0 0 1 151.6976 496.9472)" display="inline"><tspan x="0" y="0" fill="#FFFFFF" font-family="'Gadugi'" font-size="28">State your role and show me operations.</tspan><tspan x="16.27" y="33.6" fill="#FFFFFF" font-family="'Gadugi'" font-size="28">I will reveal if reality respects the plan.</tspan></text>
</g>
<g id="Chat_Input" display="none">
	<path display="inline" fill="none" stroke="#F9B233" stroke-width="2" stroke-miterlimit="5" d="M884.314,608.316H-81.39
		c-4.537,0-8.25-3.712-8.25-8.25v-41.248c0-4.537,3.712-8.25,8.25-8.25h965.704c4.537,0,8.25,3.712,8.25,8.25v41.248
		C892.564,604.603,888.852,608.316,884.314,608.316z"/>
	
		<text transform="matrix(1 0 0 1 -19.063 589.4423)" display="inline" fill="#FFFFFF" stroke="#FFFFFF" stroke-miterlimit="5" font-family="'Arial-ItalicMT'" font-size="28">|  Type here ...</text>
</g>
<g id="Ai_Operational_Governance" display="none">
	<g display="inline">
		<text transform="matrix(1 0 0 1 204.9139 656.4384)" fill="#F9B233" font-family="'ArialMT'" font-size="25">AI OPERATIONAL GOVERNANCE</text>
		
			<line fill="none" stroke="#F9B233" stroke-width="2" stroke-miterlimit="10" x1="187.063" y1="645.939" x2="-89.639" y2="645.939"/>
		
			<line fill="none" stroke="#F9B233" stroke-width="2" stroke-miterlimit="10" x1="892.564" y1="645.939" x2="615.861" y2="645.939"/>
	</g>
</g>
<g id="Mode_x2F_Graduate" display="none">
	<text transform="matrix(1 0 0 1 140.7872 691.9365)" display="inline" fill="#FCEA10" font-family="'Gadugi'" font-size="25">Mode: VISION. Observation only. No execution.</text>
	<text transform="matrix(1 0 0 1 311.2948 726.8672)" display="inline" fill="#FFFFFF" font-family="'Gadugi'" font-size="25">GRADUATE: OFF</text>
</g>
<g id="Icons" display="none">
	<g id="FAQ">
		
			<text transform="matrix(1 0 0 1 -400.1259 -98.5017)" display="inline" fill="#FFFFFF" font-family="'Arial-BoldMT'" font-size="31">FAQ</text>
	</g>
	<text transform="matrix(1 0 0 1 1178.5166 705.4783)" fill="#FFFFFF" font-family="'Arial-BoldMT'" font-size="31">?</text>
	<text transform="matrix(1 0 0 1 1172.484 -98.5019)" fill="#FFFFFF" font-family="'Arial-BoldMT'" font-size="31">ID</text>
	<g id="CHAT_x5F_ADD" display="inline">
		<text transform="matrix(1 0 0 1 -62.0534 590.4423)" fill="#FFFFFF" font-family="'Gadugi'" font-size="34">+</text>
	</g>
	<g id="MIC" display="inline">
		<g>
			<g>
				<path fill="none" stroke="#F9B233" stroke-miterlimit="10" d="M883.241,578.632c0,7.938-7.246,14.361-16.2,14.361h3.21
					c-8.954,0-16.2-6.423-16.2-14.361"/>
				<line fill="none" stroke="#F9B233" stroke-miterlimit="10" x1="868.645" y1="592.993" x2="868.645" y2="604.358"/>
			</g>
			<linearGradient id="SVGID_1_" gradientUnits="userSpaceOnUse" x1="868.6454" y1="585.8124" x2="868.6454" y2="558.5259">
				<stop  offset="0.3514" style="stop-color:#E9A300"/>
				<stop  offset="0.3634" style="stop-color:#E4A217"/>
				<stop  offset="0.4381" style="stop-color:#C09848"/>
				<stop  offset="0.515" style="stop-color:#9D865B"/>
				<stop  offset="0.5924" style="stop-color:#7C715A"/>
				<stop  offset="0.6706" style="stop-color:#5E594D"/>
				<stop  offset="0.7496" style="stop-color:#45423D"/>
				<stop  offset="0.8299" style="stop-color:#2D2C2A"/>
				<stop  offset="0.9123" style="stop-color:#0F0F0E"/>
				<stop  offset="1" style="stop-color:#000000"/>
			</linearGradient>
			<path fill="url(#SVGID_1_)" stroke="#F9B233" stroke-miterlimit="10" d="M870.815,585.812h-4.339c-3.85,0-7-3.15-7-7v-13.287
				c0-3.85,3.15-7,7-7h4.339c3.85,0,7,3.15,7,7v13.287C877.815,582.662,874.665,585.812,870.815,585.812z"/>
		</g>
	</g>
</g>
</svg>
